PathFileType	4	(X/Y/Z)	D:\TRACE\spot_10-12-23\spot_arm_body_motion_3_10-v60.trc
DataRate	CameraRate	NumFrames	NumMarkers	Units	OrigDataRate	OrigDataStartFrame	OrigNumFrames
100.00	100.00	      28	9	mm	100.00	5251	      7000
Frame#	Time	front left toe			Front right toe			aft left toe			aft right toe			Arm			FL body			FR body			AL Body			AR Body			
		X1	Y1	Z1	X2	Y2	Z2	X3	Y3	Z3	X4	Y4	Z4	X5	Y5	Z5	X6	Y6	Z6	X7	Y7	Z7	X8	Y8	Z8	X9	Y9	Z9	

5251	52.500	-209.91748	142.89478	-291.82727	177.21924	61.83815	-439.33112	-187.17404	4.55192	165.06424	150.74924	0.55841	133.18761	75.15834	899.03912	-669.29681	-49.41993	620.09314	-468.70013	102.77884	626.56549	-461.78256	-92.31281	534.25836	410.39108	57.85506	533.75092	419.31082	
5252	52.510	-210.20070	140.89305	-294.73660	176.26279	62.27198	-438.92697	-188.09973	4.21664	165.38911	149.97826	0.62330	133.55072	73.11224	899.31232	-668.49133	-51.41192	621.58319	-467.45053	100.46738	627.96008	-460.62134	-94.85683	532.23798	411.27484	55.17635	532.05548	420.47772	
5253	52.520	-210.27008	137.49548	-301.71246	174.68970	63.03188	-438.91400	-189.14825	3.79232	165.54100	148.85617	0.31579	133.46553	70.62119	898.82404	-668.03009	-53.81274	622.97986	-466.07718	97.97700	629.51172	-458.89148	-97.34451	530.89746	412.29578	52.76498	530.69696	421.44318	
5254	52.530	-211.51059	131.65985	-312.44888	173.98581	63.50491	-438.48627	-190.48578	3.69699	165.94270	147.51619	0.60829	133.82838	68.80319	897.60162	-668.33978	-56.50312	624.17328	-464.70233	94.36485	631.12231	-457.83316	-99.87126	529.86804	413.55334	50.53275	529.91089	422.72763	
5255	52.540	-212.60039	123.95796	-325.19370	172.77649	63.90589	-438.07315	-191.11627	3.73691	166.19077	146.60994	0.68211	134.02570	67.50308	895.86481	-668.78198	-59.72541	625.02502	-463.26443	91.74125	632.16901	-456.20355	-102.11837	529.08362	414.66306	47.92648	529.47705	423.75577	
5256	52.550	-211.71805	113.67245	-338.83289	171.29303	64.45644	-438.31427	-192.03096	3.75246	166.35274	145.88551	0.83501	134.43051	66.61306	894.04913	-669.78613	-63.20171	626.04413	-462.03128	88.68898	633.34302	-455.28738	-104.41812	528.59277	416.11963	46.21778	528.77057	424.98645	
5257	52.560	-211.75169	102.94252	-352.06125	170.02048	65.28522	-438.01389	-193.07024	3.83909	166.60490	144.69923	0.64191	134.39302	66.66911	892.20477	-670.54077	-66.79083	626.67627	-460.76663	85.10720	634.11578	-454.12152	-106.16809	528.06769	416.96707	43.69143	528.58148	425.49411	
5258	52.570	-211.56850	91.59197	-362.20453	168.81081	65.51746	-438.33139	-194.22963	3.28935	166.98724	144.32237	0.38154	134.47591	66.73922	890.71637	-671.24603	-70.92377	626.87811	-459.98941	81.36171	634.71991	-453.79944	-109.12891	527.56403	418.05850	41.31101	528.39471	426.22235	
5259	52.580	-211.36606	80.66466	-369.84451	167.75810	66.10043	-438.10013	-194.94955	3.25392	166.96039	143.04425	0.39017	134.40253	67.02235	889.37195	-672.05585	-74.63198	626.87811	-459.35562	77.65332	634.69043	-453.34677	-111.73058	527.43896	418.60815	38.75013	528.26782	427.10944	
5260	52.590	-212.13914	69.90611	-372.97757	166.40204	66.09678	-438.07956	-196.14760	3.40369	167.13858	142.00217	0.54541	134.17220	67.45102	888.38708	-672.68689	-78.26732	626.26569	-459.06241	73.76017	634.30743	-453.13605	-114.73445	527.33990	419.26547	35.25059	528.40906	426.90817	
5261	52.600	-212.71039	59.61000	-372.73529	167.33818	68.25271	-437.31696	-197.57765	2.29378	167.85678	141.73999	0.37455	134.59085	67.74066	887.90686	-673.29718	-82.21505	625.90503	-459.09802	69.79220	633.97852	-453.25232	-118.30681	527.22809	419.00473	32.36058	527.79865	427.37717	
5262	52.610	-214.73009	59.13512	-372.98050	166.22180	67.93977	-437.56097	-199.10928	1.44976	168.16245	140.44341	0.11091	134.79155	67.88377	887.56396	-673.27362	-85.78767	625.57019	-459.44608	66.25452	632.92303	-453.24869	-121.94192	527.15332	418.77417	28.62588	527.61249	426.77444	
5263	52.620	-216.26167	57.95888	-374.23706	165.22479	68.57241	-436.90408	-200.43944	2.09678	167.39561	139.10681	0.99293	134.48335	67.72514	887.52753	-673.48651	-89.61907	625.47028	-459.70297	62.51270	632.25616	-453.86346	-125.26431	528.11182	419.07822	24.77231	528.24005	426.31854	
5264	52.630	-218.03860	58.32753	-371.53525	163.00331	69.49202	-437.86880	-201.45502	-0.06649	167.96413	136.44185	2.47036	134.36938	67.20836	888.00940	-673.17865	-93.51411	625.84106	-460.18121	58.62471	632.04681	-454.31973	-128.98428	529.33850	418.10809	21.16442	528.53839	425.75388	
5265	52.640	-219.06694	57.03854	-372.37689	161.64555	70.49368	-437.21414	-203.99652	-0.37186	167.96280	134.52052	4.35229	135.31606	67.03551	888.70349	-672.90454	-97.08167	626.90637	-460.56555	54.93738	631.66925	-455.30029	-132.61842	530.91937	417.67880	17.82423	528.85681	425.26660	
5266	52.650	-221.37137	58.65899	-372.55536	160.72682	69.82118	-437.18951	-204.54330	-0.39197	167.17683	133.57182	3.21144	135.20183	65.78726	889.43512	-672.41608	-99.96284	627.61066	-461.33176	52.48460	631.56415	-455.59537	-136.91704	532.13239	417.12518	13.46071	529.48602	424.74011	
5267	52.660	-221.37048	58.24293	-372.92960	159.99342	69.82535	-437.09421	-205.11319	-0.30937	167.36292	132.80029	2.61940	134.96951	64.93227	890.03143	-672.09674	-102.57065	628.82196	-462.01633	49.52646	632.15680	-456.15500	-140.68964	533.55603	416.42838	9.88815	530.21039	424.14319	
5268	52.670	-222.30077	58.36285	-373.08640	159.25870	69.86870	-437.42725	-206.41104	-0.89758	167.26479	131.32123	3.68619	134.96729	63.94714	890.85638	-672.06598	-104.63736	630.11774	-462.72360	47.14670	633.15643	-457.06583	-143.90266	535.01111	415.77402	6.46649	530.94281	423.79910	
5269	52.680	-222.71910	58.44683	-373.35385	158.18796	70.43645	-437.44824	-207.64302	-0.93170	166.95119	130.31160	3.87033	135.17778	62.48101	891.73053	-672.16150	-107.13740	631.36011	-463.38766	45.17789	634.20911	-457.33829	-147.24631	535.76599	414.76489	2.89896	532.07831	422.89639	
5270	52.690	-223.08833	58.34719	-373.28986	157.57339	70.71579	-437.57468	-208.52983	-1.03182	166.66121	129.53557	3.73031	135.32201	60.75527	892.94293	-671.78442	-109.02465	632.59479	-464.05432	43.02743	635.71027	-457.64221	-150.55482	536.63727	414.08295	-0.17581	533.31384	422.46835	
5271	52.700	-224.23009	58.24989	-373.24896	156.57225	70.66405	-437.56744	-209.08028	-1.21623	166.51431	129.03552	3.84778	135.22458	59.18282	894.15216	-671.74762	-111.10943	634.00732	-464.85632	41.27586	637.26898	-458.21295	-153.28914	537.53333	413.32611	-2.64896	534.27087	421.81781	
5272	52.710	-225.11797	58.22060	-373.28101	155.57037	70.63865	-438.07190	-210.04453	-1.37416	166.46724	128.11969	3.84194	134.90413	56.88656	895.24084	-672.14679	-113.15044	635.18286	-465.41306	38.80839	638.98145	-458.73398	-155.48294	538.49860	412.41071	-5.04254	535.40106	421.37979	
5273	52.720	-225.78584	58.02480	-373.59695	154.80528	70.72840	-438.24551	-210.73598	-1.38150	166.30296	127.25819	3.84178	134.70287	55.53375	896.12598	-671.77979	-115.46230	636.52087	-466.15128	36.71957	640.67712	-459.44531	-157.57408	539.39996	411.80136	-7.10172	536.60901	420.77399	
5274	52.730	-226.91350	57.79865	-373.52292	153.77213	70.81128	-438.42896	-211.58189	-1.31079	166.30746	126.71278	3.86898	134.68478	53.72667	896.83478	-671.58154	-117.71052	638.00482	-466.80737	34.48788	642.33362	-460.10910	-159.28580	540.59985	411.03473	-8.64694	538.04285	419.78195	
5275	52.740	-227.79701	57.68811	-373.79309	152.78961	70.92719	-438.49652	-212.13454	-1.22103	166.21950	125.77241	4.04951	134.55968	52.57794	897.22656	-671.52069	-120.28064	639.49713	-467.55542	31.90777	644.08563	-460.96173	-160.53378	541.64417	410.53900	-9.28896	539.58624	419.24612	
5276	52.750	-228.05295	56.95123	-373.66965	151.80196	70.82581	-439.05301	-212.53563	-1.16877	166.20207	125.34422	4.12668	134.29625	51.94786	897.36023	-671.55554	-122.77142	640.77356	-468.25305	29.32251	645.73083	-461.94519	-162.03957	542.99939	409.83798	-12.14847	541.33319	417.87827	
5277	52.760	-229.46480	56.90041	-373.85965	151.03531	70.89368	-439.18491	-213.09253	-1.02181	166.15877	124.80923	4.13480	134.06410	51.43898	897.37561	-671.67108	-125.04508	641.93903	-468.93973	26.78433	647.12573	-462.72839	-163.04448	544.32611	409.20981	-13.15236	542.48450	417.20703	
5278	52.770	-230.31610	56.78628	-373.98801	149.83282	70.68188	-439.70404	-213.54379	-0.94214	166.03059	124.47804	4.20422	133.85753	50.98407	897.29565	-671.60449	-127.31412	643.31592	-469.77011	24.79864	648.69171	-463.80289	-164.41711	545.51904	408.56046	-14.43197	543.93683	416.16745	
